<?xml version="1.0" encoding="utf-8"?>
<!-- Generator: Adobe Illustrator 20.1.0, SVG Export Plug-In . SVG Version: 6.00 Build 0)  -->
<svg version="1.1" id="Capa_1" xmlns="http://www.w3.org/2000/svg" xmlns:xlink="http://www.w3.org/1999/xlink" x="0px" y="0px"
	 viewBox="0 0 512 512" style="enable-background:new 0 0 512 512;" xml:space="preserve">
<g>
	<path d="M225.9,120.6c16.8,0,30.4,13.6,30.4,30.4s-13.6,30.4-30.4,30.4s-30.4-13.6-30.4-30.4S209.2,120.6,225.9,120.6 M225.9,116.2
		c-19.2,0-34.7,15.5-34.7,34.7s15.5,34.7,34.7,34.7s34.7-15.5,34.7-34.7S245.1,116.2,225.9,116.2L225.9,116.2z M245.3,162.6
		l-0.2-0.6c-0.5-1.4-2-2.8-3.4-3.2l-5.1-1.4c-1.4-0.4-3.4,0.1-4.4,1.2l-1.9,1.9c-6.7-1.8-12-7.1-13.9-13.9l1.9-1.9
		c1-1,1.5-3,1.1-4.4l-1.4-5.1c-0.4-1.4-1.8-2.9-3.2-3.4l-0.6-0.2c-1.4-0.5-3.3,0-4.3,1l-2.8,2.8c-0.5,0.5-0.8,1.9-0.8,1.9
		c-0.1,8.8,3.4,17.3,9.6,23.6c6.2,6.2,14.7,9.7,23.5,9.6c0,0,1.5-0.3,2-0.8l2.8-2.8C245.3,165.9,245.7,163.9,245.3,162.6z"/>
</g>
<image style="overflow:visible;" width="2261" height="3430" xlink:href="../../../../Documents/meedit_116.jpg"  transform="matrix(9.774436e-02 0 0 9.774436e-02 1415 1547.6268)">
</image>
</svg>
